<?xml version="1.0" standalone="no"?>
<!DOCTYPE svg PUBLIC "-//W3C//DTD SVG 20010904//EN"
 "http://www.w3.org/TR/2001/REC-SVG-20010904/DTD/svg10.dtd">
<svg version="1.0" xmlns="http://www.w3.org/2000/svg"
 width="512.000000pt" height="512.000000pt" viewBox="0 0 512.000000 512.000000"
 preserveAspectRatio="xMidYMid meet">

<g transform="translate(0.000000,512.000000) scale(0.100000,-0.100000)"
fill="#000000" stroke="none">
<path d="M1757 4533 c-2 -5 -23 -86 -47 -180 l-42 -173 -686 -2 -686 -3 -45
-183 -45 -182 91 -93 92 -92 4 -540 c4 -505 5 -546 25 -639 52 -242 132 -404
264 -534 82 -80 126 -112 223 -160 192 -95 336 -123 682 -129 l262 -5 -185
-277 -184 -276 0 -272 0 -273 1650 0 1650 0 0 273 0 272 -185 277 -185 278 0
1143 0 1143 90 44 c50 24 90 48 90 53 0 11 -78 485 -85 515 l-5 22 -1370 0
c-753 0 -1371 -3 -1373 -7z m93 -1633 l0 -550 -172 0 c-166 0 -294 14 -374 40
-18 6 -50 31 -72 54 -95 103 -103 148 -109 624 l-5 382 366 0 366 0 0 -550z"/>
</g>
</svg>
